<?xml version="1.0" encoding="UTF-8" standalone="no"?>
<svg
   xmlns:dc="http://purl.org/dc/elements/1.1/"
   xmlns:cc="http://creativecommons.org/ns#"
   xmlns:rdf="http://www.w3.org/1999/02/22-rdf-syntax-ns#"
   xmlns:svg="http://www.w3.org/2000/svg"
   xmlns="http://www.w3.org/2000/svg"
   xmlns:sodipodi="http://sodipodi.sourceforge.net/DTD/sodipodi-0.dtd"
   xmlns:inkscape="http://www.inkscape.org/namespaces/inkscape"
   version="1.1"
   id="svg2"
   width="225"
   height="225"
   viewBox="0 0 225 225"
   sodipodi:docname="INRAE_LOGO_AE.svg"
   inkscape:version="1.0.2 (e86c870879, 2021-01-15)"
   inkscape:export-filename="/home/lvarloteaux/Documents/INRAE_LOGO_AE.png"
   inkscape:export-xdpi="96"
   inkscape:export-ydpi="96">
  <metadata
     id="metadata8">
    <rdf:RDF>
      <cc:Work
         rdf:about="">
        <dc:format>image/svg+xml</dc:format>
        <dc:type
           rdf:resource="http://purl.org/dc/dcmitype/StillImage" />
        <dc:title />
      </cc:Work>
    </rdf:RDF>
  </metadata>
  <defs
     id="defs6" />
  <sodipodi:namedview
     pagecolor="#ffffff"
     bordercolor="#666666"
     borderopacity="1"
     objecttolerance="10"
     gridtolerance="10"
     guidetolerance="10"
     inkscape:pageopacity="0"
     inkscape:pageshadow="2"
     inkscape:window-width="2507"
     inkscape:window-height="1376"
     id="namedview4"
     showgrid="false"
     inkscape:zoom="3.8044444"
     inkscape:cx="98.432185"
     inkscape:cy="112.5"
     inkscape:window-x="1973"
     inkscape:window-y="27"
     inkscape:window-maximized="1"
     inkscape:current-layer="g10"
     inkscape:document-rotation="0" />
  <g
     inkscape:groupmode="layer"
     inkscape:label="Image"
     id="g10">
    <path
       style="fill:#00a0a4"
       d="m 126.104,205.45352 c -11.39016,-2.47085 -22.53544,-8.80851 -31.904123,-18.14198 l -8.300123,-8.26893 -4.949877,1.06156 c -5.927274,1.27117 -5.839077,-0.0419 -0.878796,13.08392 2.239094,5.92508 3.787536,11.23166 3.440983,11.79239 -0.924614,1.49606 -24.19269,1.34529 -25.124738,-0.16279 -0.40189,-0.65027 -2.403858,-5.93777 -4.448818,-11.75 L 50.220399,182.5 25.1102,182.23283 0,181.96566 -0.01945396,146.23283 -0.03890793,110.5 6.6559798,92.71889 13.350867,74.937779 24.38776,75.21889 35.424652,75.5 l 4.237547,11 c 2.330652,6.05 9.595996,25.175 16.145211,42.5 11.285899,29.85522 12.032585,31.48533 14.300126,31.21899 5.69501,-0.66892 7.078683,-1.29133 6.459258,-2.90552 C 70.994026,142.79107 75.579576,118.09902 86.906706,101.6356 107.35813,71.910468 155.25944,64.869388 181.75889,87.693143 L 185.01778,90.5 181.58651,98.311179 C 168.80187,127.415 145.81821,151.98407 116.94554,167.41107 l -8.13225,4.34516 5.72415,4.09897 c 28.44161,20.36659 64.73456,4.68445 70.81123,-30.59745 1.45171,-8.42882 14.39207,-32.15405 16.74463,-30.70009 2.68252,1.65789 5.40506,15.17516 5.32582,26.44234 -0.30019,42.68245 -39.27286,73.5737 -81.31512,64.45352 z M 42.541185,160.25 c -0.370036,-0.9625 -4.565169,-12.88325 -9.322517,-26.49056 -4.757349,-13.60731 -8.959735,-24.18231 -9.338637,-23.5 C 23.081573,111.69727 6,160.58632 6,161.43375 6,161.74519 14.373145,162 24.606989,162 c 17.310577,0 18.560113,-0.12193 17.934196,-1.75 z M 108,147.88926 c 19.29833,-10.505 37.72215,-27.93879 46.42667,-43.93186 l 2.69908,-4.959093 -2.81288,-1.192044 C 152.76579,97.150638 146.775,96.588519 141,96.557109 116.12763,96.421829 96.970159,115.25354 97.013655,139.79549 97.038201,153.64524 97.20295,153.76661 108,147.88926 Z"
       id="path14" />
  </g>
</svg>
