<?xml version="1.0" encoding="UTF-8" standalone="no"?>
<svg
   xmlns:dc="http://purl.org/dc/elements/1.1/"
   xmlns:cc="http://creativecommons.org/ns#"
   xmlns:rdf="http://www.w3.org/1999/02/22-rdf-syntax-ns#"
   xmlns:svg="http://www.w3.org/2000/svg"
   xmlns="http://www.w3.org/2000/svg"
   xmlns:sodipodi="http://sodipodi.sourceforge.net/DTD/sodipodi-0.dtd"
   xmlns:inkscape="http://www.inkscape.org/namespaces/inkscape"
   id="_x31_4"
   viewBox="0 0 833.61 598.36"
   version="1.1"
   sodipodi:docname="2024_11_20_Logos_OpernADOM_SDE_3.svg"
   inkscape:version="1.0.2 (e86c870879, 2021-01-15)"role="img" 
   aria-labelledby="logo-title">
  <title id="logo-title">Logo OpenADOM</title>
  <metadata
     id="metadata13">
    <rdf:RDF>
      <cc:Work
         rdf:about="">
        <dc:format>image/svg+xml</dc:format>
        <dc:type
           rdf:resource="http://purl.org/dc/dcmitype/StillImage" />
      </cc:Work>
    </rdf:RDF>
  </metadata>
  <sodipodi:namedview
     pagecolor="#ffffff"
     bordercolor="#666666"
     borderopacity="1"
     objecttolerance="10"
     gridtolerance="10"
     guidetolerance="10"
     inkscape:pageopacity="0"
     inkscape:pageshadow="2"
     inkscape:window-width="1867"
     inkscape:window-height="1043"
     id="namedview11"
     showgrid="false"
     inkscape:zoom="0.42115116"
     inkscape:cx="769.64922"
     inkscape:cy="491.52489"
     inkscape:window-x="0"
     inkscape:window-y="0"
     inkscape:window-maximized="1"
     inkscape:current-layer="_x31_4"
     inkscape:document-rotation="0" />
  <defs
     id="defs4">
    <style
       id="style2">
      .cls-1 {
        fill: #00a3a6;
      }

      .cls-2 {
        fill: #275663;
      }
    </style>
  </defs>
  <path
     class="cls-2"
     d="m 267.0022,52.127747 c -143.15531,0 -259.2012909,119.663923 -259.2012909,267.282303 0,147.61841 116.0459809,267.28233 259.2012909,267.28233 143.15528,0 259.20126,-119.66392 259.20126,-267.28233 0,-147.61838 -116.04598,-267.282303 -259.20126,-267.282303 z m 0,433.881553 c -89.21009,0 -161.56229,-74.56091 -161.56229,-166.59925 0,-92.03831 72.30663,-166.59925 161.56229,-166.59925 89.25562,0 161.56226,74.56094 161.56226,166.59925 0,92.03834 -72.30664,166.59925 -161.56226,166.59925 z"
     id="path6"
     style="stroke-width:4.62666" />
  <path
     class="cls-1"
     d="M 531.44308,59.879822 H 640.74592 L 832.0145,581.75923 H 707.94962 L 667.35403,464.91425 H 504.10598 L 464.23936,581.75923 H 340.12892 L 531.39751,59.879822 Z m 115.95486,321.969728 -61.32622,-184.4995 -62.78421,184.4995 h 124.06487 z"
     id="path8"
     style="stroke-width:4.62666" />
</svg>
