<?xml version="1.0" encoding="UTF-8" standalone="no"?>
<!-- Created with Inkscape (http://www.inkscape.org/) -->

<svg
   xmlns:dc="http://purl.org/dc/elements/1.1/"
   xmlns:cc="http://creativecommons.org/ns#"
   xmlns:rdf="http://www.w3.org/1999/02/22-rdf-syntax-ns#"
   xmlns:svg="http://www.w3.org/2000/svg"
   xmlns="http://www.w3.org/2000/svg"
   xmlns:sodipodi="http://sodipodi.sourceforge.net/DTD/sodipodi-0.dtd"
   xmlns:inkscape="http://www.inkscape.org/namespaces/inkscape"
   version="1.1"
   id="svg79"
   width="377.92001"
   height="99.519997"
   viewBox="0 0 377.92001 99.519997"
   sodipodi:docname="Logo-INRAE.svg"
   inkscape:version="0.92.5 (2060ec1f9f, 2020-04-08)">
  <metadata
     id="metadata85">
    <rdf:RDF>
      <cc:Work
         rdf:about="">
        <dc:format>image/svg+xml</dc:format>
        <dc:type
           rdf:resource="http://purl.org/dc/dcmitype/StillImage" />
        <dc:title />
      </cc:Work>
    </rdf:RDF>
  </metadata>
  <defs
     id="defs83" />
  <sodipodi:namedview
     pagecolor="#ffffff"
     bordercolor="#666666"
     borderopacity="1"
     objecttolerance="10"
     gridtolerance="10"
     guidetolerance="10"
     inkscape:pageopacity="0"
     inkscape:pageshadow="2"
     inkscape:window-width="1920"
     inkscape:window-height="956"
     id="namedview81"
     showgrid="false"
     inkscape:zoom="2.8284271"
     inkscape:cx="248.61722"
     inkscape:cy="32.735407"
     inkscape:window-x="0"
     inkscape:window-y="27"
     inkscape:window-maximized="1"
     inkscape:current-layer="svg79" />
  <g
     id="g105"
     transform="translate(0.70710811,0.35355344)">
    <path
       style="fill:#00a2a6;stroke-width:0.31999999"
       d="m 324.96001,98.984855 c -8.36746,-0.703092 -16.41284,-3.548131 -23.68,-8.373818 -3.4412,-2.285091 -9.81083,-8.313071 -11.6496,-11.024735 -0.81636,-1.203901 -1.17471,-1.490938 -1.66648,-1.334855 -0.34456,0.10936 -2.1694,0.528032 -4.0552,0.930381 -1.8858,0.402346 -3.39677,0.882877 -3.35773,1.06784 0.0391,0.184966 1.45491,4.027408 3.14636,8.538765 2.49415,6.652294 3.00174,8.291177 2.68581,8.671852 -0.32885,0.396243 -1.8164,0.456166 -9.54636,0.384547 l -9.1568,-0.08483 -2.43679,-7.04 c -1.34023,-3.872 -2.67856,-7.725129 -2.97405,-8.562511 l -0.53727,-1.522512 -19.06777,0.08251 -19.06778,0.08251 -2.92636,8.479999 -2.92636,8.48 -9.14862,0.08483 c -7.53607,0.06988 -9.21428,0.0057 -9.52116,-0.364048 -0.29442,-0.354758 3.36375,-10.437436 17.44599,-48.084833 C 226.32003,23.196178 234.47787,1.58 234.64837,1.36 c 0.44641,-0.57601567 15.69846,-0.57601567 16.13963,0 0.16849,0.22 5.60418,14.548 12.07931,31.839999 7.08379,18.917462 11.93407,31.439999 12.17747,31.439999 0.46138,0 5.57323,-0.924166 6.10628,-1.103946 0.23697,-0.07993 0.0909,-1.193612 -0.44948,-3.427225 -0.72407,-2.992806 -0.80277,-3.981213 -0.824,-10.348828 -0.0222,-6.647968 0.0268,-7.253837 0.87977,-10.88 8.30337,-35.3007223 48.80087,-50.376155 77.43485,-28.825587 1.3848,1.042221 2.44781,2.080888 2.44781,2.391743 0,0.302212 -0.5177,1.837459 -1.15043,3.41166 -7.86874,19.576664 -21.94474,36.803163 -39.48957,48.32809 -4.28346,2.813738 -9.43572,5.744458 -12.70445,7.226573 -1.10856,0.50264 -2.01555,1.049481 -2.01555,1.215203 0,0.531293 4.32924,3.963875 6.92579,5.491341 5.21717,3.069084 10.26365,4.42974 16.45542,4.436771 4.22983,0.0048 6.43069,-0.322656 10.05879,-1.496611 4.81302,-1.557367 8.73965,-3.931927 12.59869,-7.618807 5.72969,-5.474147 9.07577,-12.324604 9.97782,-20.427823 0.19914,-1.788906 0.60567,-4.044553 0.90336,-5.012553 0.6872,-2.234429 10.56327,-17.95344 11.20819,-17.839299 1.14132,0.201983 3.67274,9.507267 4.21632,15.4987 0.99325,10.948176 -1.90736,22.039081 -8.26979,31.620598 -9.73184,14.655682 -27.11913,23.156462 -44.39459,21.704857 z m -68.64,-33.701318 c 0,-0.387475 -13.39381,-39.104013 -13.59876,-39.308958 -0.0804,-0.0804 -0.21707,0.05443 -0.30371,0.299619 -2.81552,7.967763 -13.29753,38.660798 -13.29753,38.937358 0,0.298496 3.14914,0.388442 13.6,0.388442 8.75192,0 13.6,-0.11281 13.6,-0.316461 z m 45.62222,-8.947302 c 14.3109,-7.138995 26.01551,-17.51878 34.68322,-30.757522 2.67459,-4.085068 4.07888,-6.58106 3.83808,-6.82186 -0.0865,-0.0865 -1.45018,-0.544277 -3.0304,-1.017278 -4.04554,-1.210937 -10.77072,-1.445852 -15.19738,-0.530854 -10.08346,2.08426 -18.31709,8.500102 -22.88339,17.831278 -2.60562,5.324557 -3.16669,7.836422 -3.18075,14.24 -0.0109,4.939251 0.50103,9.279999 1.09435,9.279999 0.12017,0 2.2245,-1.000694 4.67627,-2.223763 z M 0.38400001,97.535997 C -0.17420194,96.977795 -0.17420194,1.9022019 0.38400001,1.344 0.9311342,0.7968658 17.628866,0.7968658 18.176,1.344 c 0.295224,0.2952239 0.384,11.386184 0.384,47.973826 0,26.174405 -0.08741,47.817605 -0.194236,48.095998 -0.170529,0.444394 -1.256327,0.506173 -8.8960002,0.506173 -6.3413718,0 -8.80592548,-0.104163 -9.08576379,-0.384 z M 33.613956,97.306071 C 33.38633,96.880752 33.280001,81.603348 33.280001,49.323893 c 0,-42.6262231 0.05024,-47.4084235 0.502857,-47.8610359 0.431703,-0.4317036 1.696244,-0.50285713 8.936775,-0.50285713 h 8.433917 l 0.583226,0.74613383 c 0.320774,0.4103736 9.367226,14.8793042 20.103226,32.1531802 10.736,17.273875 19.628,31.410111 19.76,31.413865 0.132,0.0037 0.24,-14.377776 0.24,-31.958943 0,-28.8533984 0.04928,-31.9846751 0.506173,-32.1599996 0.278394,-0.10683 4.209594,-0.19423643 8.736005,-0.19423643 5.97431,0 8.33506,0.10524143 8.61382,0.38400003 0.29523,0.2952239 0.384,11.386184 0.384,47.973826 0,26.174405 -0.0874,47.817605 -0.19423,48.095998 -0.17054,0.444419 -1.2576,0.506173 -8.91041,0.506173 -7.902238,0 -8.761646,-0.05229 -9.203201,-0.56 C 91.504287,97.051997 82.604985,82.831998 71.995928,65.759998 61.386872,48.687999 52.54772,34.517842 52.353368,34.270764 52.094622,33.94182 51.95716,42.381906 51.840001,65.790763 l -0.16,31.969234 -8.866045,0.08504 c -8.508838,0.08161 -8.879501,0.0599 -9.2,-0.538963 z m 91.380284,0.107753 C 124.88741,97.135431 124.8,75.481063 124.8,49.29301 c 0,-41.269656 0.062,-47.6661152 0.4654,-48.0008893 0.7355,-0.61040766 39.42877,-0.2519994 42.91894,0.3975498 12.04606,2.2418711 19.90162,7.7175721 23.3908,16.3044965 1.68372,4.143653 2.16333,7.027313 2.14319,12.885832 -0.0222,6.437091 -0.52241,8.793859 -2.88538,13.593123 -1.2699,2.579181 -1.95282,3.493747 -4.56317,6.110921 -1.98133,1.986509 -4.02386,3.659066 -5.76059,4.717152 -1.47995,0.901639 -2.83644,1.687888 -3.01442,1.747216 -0.17799,0.05933 4.31718,8.786678 9.98927,19.394111 8.32421,15.567216 10.29389,19.482086 10.21442,20.301859 l -0.0985,1.015616 h -9.56572 -9.56572 l -9.35403,-18.079999 -9.35404,-18.08 -8.20025,-0.0854 -8.20025,-0.0854 v 17.739228 c 0,9.756576 -0.0874,17.967008 -0.19423,18.245401 -0.17067,0.444759 -1.27305,0.506173 -9.08577,0.506173 -7.81271,0 -8.91509,-0.06141 -9.08576,-0.506173 z M 163.6304,45.619522 c 4.95816,-0.948653 8.34166,-3.375027 10.33741,-7.413162 1.07085,-2.16671 1.19123,-2.681305 1.32363,-5.658515 0.0818,-1.838878 -0.0144,-4.045258 -0.21936,-5.031445 -0.83845,-4.03451 -3.22613,-7.338043 -6.49707,-8.98921 -3.34376,-1.687925 -4.90631,-1.877267 -15.53501,-1.882461 l -9.68,-0.0047 v 14.72 14.72 h 8.93185 c 6.4428,0 9.60254,-0.128324 11.33855,-0.460477 z"
       id="path107"
       inkscape:connector-curvature="0" />
  </g>
</svg>
